<?xml version="1.0" encoding="utf-8"?>
<!-- Generator: Adobe Illustrator 16.0.4, SVG Export Plug-In . SVG Version: 6.00 Build 0)  -->
<!DOCTYPE svg PUBLIC "-//W3C//DTD SVG 1.1//EN" "http://www.w3.org/Graphics/SVG/1.1/DTD/svg11.dtd">
<svg version="1.1" id="mobail-icon" xmlns="http://www.w3.org/2000/svg" xmlns:xlink="http://www.w3.org/1999/xlink" x="0px"
	 y="0px" width="80px" height="80px" viewBox="0 0 80 80" enable-background="new 0 0 80 80" xml:space="preserve">
<g id="button">
	<path fill="#FF6600" d="M39.939,77.992c-20.593,0-37.345-17.133-37.345-38.192c0-21.06,16.752-38.192,37.345-38.192
		c20.592,0,37.345,17.133,37.345,38.192C77.284,60.858,60.532,77.992,39.939,77.992z"/>
	<path d="M39.939,2.213c20.265,0,36.751,16.861,36.751,37.586c0,20.725-16.486,37.586-36.751,37.586
		c-20.266,0-36.753-16.862-36.753-37.586C3.186,19.074,19.673,2.213,39.939,2.213 M39.939,1C18.985,1,2.001,18.373,2.001,39.799
		c0,21.429,16.984,38.799,37.938,38.799c20.951,0,37.938-17.37,37.938-38.799C77.877,18.373,60.891,1,39.939,1L39.939,1z"/>
	<path fill="#FDAA68" d="M30.877,46.714c12.891-11.348,29.576-21.94,43.958-13.952c-3.217-16.7-17.638-29.339-34.896-29.339
		c-19.613,0-35.567,16.321-35.567,36.379c0,4.859,0.945,9.496,2.642,13.737C12.657,54.991,21.428,55.031,30.877,46.714z"/>
	<path fill="#FFFFFF" d="M6.746,42.229c0-20.058,15.954-36.378,35.567-36.378c9.202,0,17.6,3.595,23.921,9.482
		C59.726,8.02,50.348,3.423,39.939,3.423c-19.613,0-35.567,16.321-35.567,36.379c0,10.644,4.494,20.235,11.645,26.894
		C10.26,60.229,6.746,51.642,6.746,42.229z"/>
</g>
<g id="icon">
	<linearGradient id="phone_x5F_shadow_1_" gradientUnits="userSpaceOnUse" x1="42.4556" y1="69.5889" x2="42.4556" y2="15.2861">
		<stop  offset="0" style="stop-color:#FFFFFF"/>
		<stop  offset="1" style="stop-color:#B7C6CE"/>
	</linearGradient>
	<path id="phone_x5F_shadow" opacity="0.8" fill="url(#phone_x5F_shadow_1_)" d="M49.921,22.226H37.015l-0.003-3.831
		c-0.003-1.641-1.303-2.969-2.905-2.966c-1.603,0-2.902,1.332-2.901,2.969l0.005,4.809c-2.665,1.417-4.515,4.234-4.515,7.504v15.853
		c0,4.666,0.748,11.788,1.66,15.825c0.913,4.04,5.392,7.343,9.956,7.343h8.287c4.563,0,9.042-3.398,9.956-7.546
		c0.912-4.152,1.66-11.365,1.66-16.031V30.711C58.214,26.045,54.482,22.226,49.921,22.226z M42.457,63.262
		c-1.803,0-3.267-1.497-3.267-3.341s1.464-3.338,3.267-3.338c1.806,0,3.263,1.494,3.263,3.338S44.263,63.262,42.457,63.262z
		 M52.658,41.788c0,0.933-0.746,1.697-1.658,1.697H33.919c-0.912,0-1.659-0.764-1.659-1.697v-10.63c0-0.936,0.748-1.697,1.659-1.697
		H51c0.912,0,1.658,0.761,1.658,1.697V41.788z"/>
	<path id="phone" d="M48.357,20.628H35.452l-0.003-3.831c-0.003-1.641-1.303-2.97-2.905-2.967c-1.604,0-2.902,1.332-2.901,2.969
		l0.004,4.809c-2.664,1.415-4.514,4.234-4.514,7.503v15.853c0,4.667,0.748,11.789,1.66,15.825c0.913,4.04,5.392,7.344,9.955,7.344
		h8.288c4.563,0,9.042-3.397,9.956-7.546c0.912-4.152,1.66-11.364,1.66-16.031V29.112C56.651,24.446,52.919,20.628,48.357,20.628z
		 M40.894,61.663c-1.803,0-3.267-1.497-3.267-3.34c0-1.844,1.464-3.338,3.267-3.338c1.806,0,3.264,1.494,3.264,3.338
		C44.157,60.167,42.7,61.663,40.894,61.663z M51.095,40.189c0,0.933-0.746,1.696-1.658,1.696H32.356
		c-0.912,0-1.659-0.764-1.659-1.696V29.558c0-0.936,0.747-1.696,1.659-1.696h17.081c0.912,0,1.658,0.761,1.658,1.696V40.189z"/>
</g>
<path id="overlay" opacity="0" fill="#FFFFFF" d="M39.939,1C18.985,1,2.001,18.373,2.001,39.799
	c0,21.429,16.984,38.799,37.938,38.799c20.951,0,37.938-17.37,37.938-38.799C77.877,18.373,60.891,1,39.939,1L39.939,1z"/>
<g>
</svg>
