<?xml version="1.0" encoding="utf-8"?>
<!-- Generator: Adobe Illustrator 16.0.4, SVG Export Plug-In . SVG Version: 6.00 Build 0)  -->
<!DOCTYPE svg PUBLIC "-//W3C//DTD SVG 1.1//EN" "http://www.w3.org/Graphics/SVG/1.1/DTD/svg11.dtd">
<svg version="1.1" id="logo" xmlns="http://www.w3.org/2000/svg" xmlns:xlink="http://www.w3.org/1999/xlink" x="0px" y="0px"
	 width="700px" height="166px" viewBox="0 0 700 166" enable-background="new 0 0 700 166" xml:space="preserve">
<path id="border" d="M669.688,166C686.401,166,700,152.566,700,136.047V29.955C700,13.438,686.401,0,669.688,0H30.312
	C13.596,0,0,13.438,0,29.955v106.092C0,152.566,13.596,166,30.312,166H669.688L669.688,166z"/>
<path id="background" fill="#FFFFFF" d="M30.312,156.883c-11.647,0-21.087-9.331-21.087-20.841V29.953
	c0-11.51,9.44-20.838,21.087-20.838h639.38c11.646,0,21.091,9.328,21.091,20.838v106.089c0,11.51-9.444,20.841-21.091,20.841H30.312
	L30.312,156.883z"/>
<path id="orange_x5F_edge_1_" fill="#F27930" d="M30.312,156.883c-11.647,0-21.087-9.331-21.087-20.841V29.953
	c0-11.51,9.44-20.838,21.087-20.838c0,0,53.643,0.009,53.641,0.002v147.766C83.955,156.883,30.312,156.883,30.312,156.883
	L30.312,156.883z"/>
<polygon id="dot" fill="#F27930" points="501.288,105.17 523.333,105.17 523.333,126.974 501.288,126.974 501.288,105.17 "/>
<path id="letter_x5F_m" d="M104.521,51.4h18.788v7.737h0.285c4.981-6.894,11.104-9.705,19.357-9.705
	c8.97,0,15.515,4.358,17.652,12.095h0.282c2.99-8.016,10.105-12.095,19.359-12.095c12.953,0,19.072,8.017,19.072,22.645v54.997
	h-19.642V74.188c0-6.329-2.136-9.846-7.687-9.846c-6.264,0-10.248,4.22-10.248,12.94v49.791h-19.644V74.188
	c0-6.329-2.134-9.846-7.684-9.846c-6.264,0-10.25,4.22-10.25,12.94v49.791h-19.642V51.4L104.521,51.4z"/>
<path id="letter_x5F_" d="M231.483,89.238c0-15.472,0.856-26.586,10.534-26.586c7.969,0,10.534,7.738,10.534,26.586
	c0,18.849-2.564,26.583-10.534,26.583C232.34,115.821,231.483,104.707,231.483,89.238L231.483,89.238z M211.841,89.238
	c0,26.302,6.547,40.228,30.176,39.809c22.489,0,30.176-13.926,30.176-39.809c0-26.305-6.548-40.227-30.176-39.806
	C219.528,49.433,211.841,63.358,211.841,89.238L211.841,89.238z"/>
<path id="letter_x5F_b" d="M304.443,89.238c0-16.456,1.708-24.896,10.393-24.896c8.539,0,10.247,8.439,10.247,24.896
	s-1.708,24.896-10.247,24.896C306.151,114.135,304.443,105.694,304.443,89.238L304.443,89.238z M284.801,127.074h18.79v-8.018h0.285
	c4.271,7.035,9.677,9.99,17.364,9.99c16.084,0,23.486-11.676,23.486-39.809s-7.402-39.806-23.486-39.806
	c-7.4,0-12.386,2.952-16.51,9.001h-0.287V26.646h-19.642V127.074L284.801,127.074z"/>
<path id="letter_x5F_i" d="M359.387,51.4h19.643v75.674h-19.643V51.4L359.387,51.4z M359.387,25.521h19.643v16.596h-19.643V25.521
	L359.387,25.521z"/>
<polygon id="letter_x5F_l" points="396.624,26.631 416.265,26.631 416.265,127.064 396.624,127.064 396.624,26.631 "/>
<path id="letter_x5F_e1" d="M448.855,80.273v-2.951c0-7.035,2.277-15.051,10.11-15.051c8.111,0,9.537,6.469,9.962,18.002H448.855
	L448.855,80.273z M487.714,91.808v-4.356c0-23.212-5.125-38.402-28.04-38.402c-26.475,0-30.46,18.849-30.46,39.104
	c0,18.848,1.138,40.508,29.608,40.508c18.504,0,27.045-9.846,27.753-27.426h-17.647c-1.138,9.283-3.842,14.206-10.388,14.206
	c-7.263,0-9.685-8.721-9.685-17.581v-6.052H487.714L487.714,91.808z"/>
<path id="letter_x5F_d" d="M557.151,89.238c0-16.456,1.709-24.896,10.249-24.896c8.686,0,10.393,8.439,10.393,24.896
	s-1.707,24.896-10.393,24.896C558.86,114.135,557.151,105.694,557.151,89.238L557.151,89.238z M578.646,127.074h18.791V26.646
	h-19.644v31.788h-0.286c-4.129-6.049-9.11-9.001-16.513-9.001c-16.082,0-23.484,11.673-23.484,39.806s7.402,39.809,23.484,39.809
	c7.689,0,13.097-2.955,17.369-9.99h0.282V127.074L578.646,127.074z"/>
<path id="letter_x5F_e2" d="M630.06,80.657v-2.952c0-7.034,2.277-15.053,10.105-15.053c8.109,0,9.536,6.473,9.962,18.005H630.06
	L630.06,80.657z M668.917,92.193v-4.361c0-23.209-5.125-38.399-28.044-38.399c-26.47,0-30.46,18.849-30.46,39.105
	c0,18.843,1.143,40.509,29.608,40.509c18.503,0,27.044-9.846,27.758-27.432h-17.652c-1.139,9.283-3.843,14.206-10.393,14.206
	c-7.259,0-9.675-8.721-9.675-17.58v-6.048H668.917L668.917,92.193z"/>
</svg>
