<?xml version="1.0" encoding="utf-8"?>
<!-- Generator: Adobe Illustrator 16.0.4, SVG Export Plug-In . SVG Version: 6.00 Build 0)  -->
<!DOCTYPE svg PUBLIC "-//W3C//DTD SVG 1.1//EN" "http://www.w3.org/Graphics/SVG/1.1/DTD/svg11.dtd">
<svg version="1.1" id="Layer_1" xmlns="http://www.w3.org/2000/svg" xmlns:xlink="http://www.w3.org/1999/xlink" x="0px" y="0px"
	 width="20px" height="20px" viewBox="0 0 20 20" enable-background="new 0 0 20 20" xml:space="preserve">
<g id="Reload" opacity="0.7">
	<path d="M10.07,16.897c-3.816,0-6.92-3.06-6.92-6.821c0-3.761,3.104-6.821,6.92-6.821c1.637,0,3.139,0.567,4.324,1.508
		l-3.431,2.924L20,9.002L19.982,0l-3.174,2.705c-1.785-1.586-4.146-2.553-6.739-2.553C4.509,0.152,0,4.595,0,10.076
		C0,15.557,4.509,20,10.07,20c4.363,0,8.076-2.733,9.476-6.557l-3.219-0.469C15.218,15.288,12.834,16.897,10.07,16.897z"/>
</g>
</svg>
