<?xml version="1.0" encoding="utf-8"?>
<!-- Generator: Adobe Illustrator 16.0.4, SVG Export Plug-In . SVG Version: 6.00 Build 0)  -->
<!DOCTYPE svg PUBLIC "-//W3C//DTD SVG 1.1//EN" "http://www.w3.org/Graphics/SVG/1.1/DTD/svg11.dtd">
<!--svg version="1.1" id="main" xmlns="http://www.w3.org/2000/svg" xmlns:xlink="http://www.w3.org/1999/xlink"
    xmlns:xhtml="http://www.w3.org/1999/xhtml"
    x="0px" y="0px"
	width="234.039px" height="466.01px" viewBox="0 0 234.039 466.01" enable-background="new 0 0 234.039 466.01"
	xml:space="preserve"-->
<svg version="1.1" id="main" xmlns="http://www.w3.org/2000/svg" xmlns:xlink="http://www.w3.org/1999/xlink"
    xmlns:xhtml="http://www.w3.org/1999/xhtml"
    x="0px" y="0px"
	width="100%" height="100%" viewBox="0 0 234.039 466.01"
	xml:space="preserve">
<g id="all">
    <g id="envelope">
        <g id="back">
            <linearGradient id="SVGID_1_" gradientUnits="userSpaceOnUse" x1="63.5713" y1="300.9668" x2="168.8286" y2="483.2778">
                <stop  offset="0" style="stop-color:#B9D1FC"/>
                <stop  offset="1" style="stop-color:#508DF8"/>
            </linearGradient>
            <polygon fill="url(#SVGID_1_)" points="10,332.786 116.723,270.279 223,332.786 223,452.001 10,452.499 		"/>
            <path fill="#3C6C8C" d="M117.223,270.859L223,333.072v118.43l-212,0.496V333.073L117.223,270.859 M117.224,269.699L10,332.5V453
                l214-0.5v-120L117.224,269.699L117.224,269.699z"/>
        </g>
        <g id="left">
            <linearGradient id="SVGID_2_" gradientUnits="userSpaceOnUse" x1="25.46" y1="325.0068" x2="121.0493" y2="490.5724">
                <stop  offset="0" style="stop-color:#DCE8FE"/>
                <stop  offset="1" style="stop-color:#B9D1FC"/>
            </linearGradient>
            <polygon fill="url(#SVGID_2_)" points="10,333.932 187.85,452.005 10,452.499 		"/>
            <path fill="#3C6C8C" d="M11,334.932l175.7,116.611L11,451.997V335 M10,333v120l180-0.5L10,333L10,333z"/>
        </g>
        <g id="right">
            <linearGradient id="SVGID_3_" gradientUnits="userSpaceOnUse" x1="130.7432" y1="387.1973" x2="182.0845" y2="476.123">
                <stop  offset="0" style="stop-color:#DCE8FE"/>
                <stop  offset="1" style="stop-color:#B9D1FC"/>
            </linearGradient>
            <polygon fill="url(#SVGID_3_)" points="45.15,452.005 223,333.932 223,452.499 		"/>
            <path fill="#3C6C8C" d="M223,335v116.997l-175.7-0.488L223,334.932 M224,333L44,452.5l180,0.5V333L224,333z"/>
        </g>
        <g id="middle">
            <linearGradient id="SVGID_4_" gradientUnits="userSpaceOnUse" x1="86.0132" y1="398.3242" x2="143.3472" y2="497.6296">
                <stop  offset="0" style="stop-color:#DCE8FE"/>
                <stop  offset="1" style="stop-color:#B9D1FC"/>
            </linearGradient>
            <polygon fill="url(#SVGID_4_)" points="11.626,452 117.223,380.304 222.379,452 		"/>
            <path fill="#3C6C8C" d="M117.223,381.409L220.758,452H117H13.253L117.223,381.409 M117.224,380.199L10,453h107h107
                L117.224,380.199L117.224,380.199z"/>
        </g>
    </g>
    <g id="clippedletter">
        <defs>
            <polygon id="clip" points="117.724,379.825 135.448,392.018 224,333 224,5 10.5,5 10,333 99.147,392.018 		"/>
        </defs>
        <clipPath id="clip_1_">
            <use xlink:href="#clip"  overflow="visible"/>
        </clipPath>
        <g id="letterClip" clip-path="url(#clip_1_)">
            <g id="letter">
                <g id="sheet">
                    <linearGradient id="SVGID_5_" gradientUnits="userSpaceOnUse" x1="40.3311" y1="5.8403" x2="194.6689" y2="273.1614">
                        <stop  offset="0" style="stop-color:#FEEFD8"/>
                        <stop  offset="1" style="stop-color:#FDD089"/>
                    </linearGradient>
                    <rect x="21" y="17" fill="url(#SVGID_5_)" width="193" height="245"/>
                    <path fill="#BC842C" d="M213,18v244H21V18H213 M214,17H20v246h194V17L214,17z"/>
                </g>
                <rect x="33.583" y="34.553" fill="none" width="169.903" height="212.137"/>
            </g>
        </g>
    </g>
    <g id="closed_flap" opacity="0">
        <linearGradient id="SVGID_6_" gradientUnits="userSpaceOnUse" x1="90.4639" y1="288.46" x2="148.9521" y2="389.7646">
            <stop  offset="0" style="stop-color:#DCE8FE"/>
            <stop  offset="1" style="stop-color:#B9D1FC"/>
        </linearGradient>
        <polygon fill="url(#SVGID_6_)" points="11.585,334 221.928,334 117.269,408.056 	"/>
        <path fill="#3C6C8C" d="M220.178,334l-102.999,72.944L13.169,334H220 M223.5,333H10l107.271,75.167L223.5,333L223.5,333z"/>
    </g>
</g>
</svg>
